<?xml version="1.0" encoding="UTF-8"?>
<svg xmlns="http://www.w3.org/2000/svg" xmlns:xlink="http://www.w3.org/1999/xlink" width="90px" height="90px" viewBox="0 0 90 90" version="1.1">
<defs>
<linearGradient id="linear0" gradientUnits="userSpaceOnUse" x1="50" y1="0" x2="50" y2="100" gradientTransform="matrix(0.9,0,0,0.756303,0,0)">
<stop offset="0" style="stop-color:rgb(70.196078%,59.607843%,100%);stop-opacity:1;"/>
<stop offset="1" style="stop-color:rgb(92.156863%,79.215686%,98.431373%);stop-opacity:1;"/>
</linearGradient>
</defs>
<g id="surface1">
<path style=" stroke:none;fill-rule:nonzero;fill:url(#linear0);" d="M 45 0 C 20.160156 0 0 16.941406 0 37.816406 C 0 58.734375 20.160156 75.628906 45 75.628906 C 69.890625 75.628906 90 58.6875 90 37.816406 C 90.054688 16.941406 69.890625 0 45 0 Z M 65.644531 54.578125 C 64.839844 55.707031 63.117188 56.023438 61.773438 55.34375 C 51.183594 49.921875 37.902344 48.703125 22.203125 51.683594 C 20.699219 51.957031 19.195312 51.1875 18.871094 49.921875 C 18.546875 48.65625 19.460938 47.394531 20.96875 47.121094 C 38.117188 43.824219 52.847656 45.222656 64.675781 51.324219 C 66.074219 52 66.503906 53.445312 65.644531 54.578125 Z M 71.183594 44.277344 C 70.160156 45.675781 68.011719 46.082031 66.34375 45.269531 C 54.246094 38.988281 35.804688 37.183594 21.503906 40.84375 C 19.625 41.292969 17.6875 40.4375 17.152344 38.898438 C 16.613281 37.316406 17.632812 35.691406 19.515625 35.238281 C 35.859375 31.082031 56.183594 33.070312 70.109375 40.253906 C 71.667969 41.066406 72.203125 42.875 71.183594 44.277344 Z M 71.667969 33.523438 C 57.152344 26.292969 33.226562 25.617188 19.355469 29.140625 C 17.152344 29.726562 14.785156 28.644531 14.085938 26.792969 C 13.386719 24.9375 14.675781 22.949219 16.882812 22.363281 C 32.796875 18.296875 59.246094 19.109375 75.914062 27.425781 C 77.902344 28.417969 78.546875 30.585938 77.367188 32.257812 C 76.238281 33.976562 73.65625 34.515625 71.667969 33.523438 Z M 71.667969 33.523438 "/>
</g>
</svg>
